PathFileType	4	(X/Y/Z)	C:\Users\Basilio\Documents\Thesis Gigler\squatting_fais\c3dfiles\038\SLS_front_pre3\markers_experimental.trc
DataRate	CameraRate	NumFrames	NumMarkers	Units	OrigDataRate	OrigDataStartFrame	OrigNumFrames
200.000000	200.000000	4	61	mm	200.000000	1026	1368
Frame#	Time	FHD			LBHD			RBHD			C7			T10			CLAV			LSHO			LUUPA			LMUPA			LDUPA			LLEP			LMEP			LUL			LRFIN			RSHO			RUPA1			RMUPA			RDUPA			RLEP			RMEP			RRAD			RUL			RUFIN			LASI			RASI			USACR			LSACR			RSACR			LTHI1			LTHI2			LTHI3			LTHI4			LLFC			LMFC			LTIB1			LTIB2			LTIB3			LTIB4			LLMAL			LMMAL			LHEE			LMT1			LMT2			LMT5			RTHI			RTHI2			RTHI3			RTHI4			RLFC			RMFC			RTIB1			RTIB2			RTIB3			RTIB4			RLMAL			RMMAL			RHEE			RMT1			RMT2			RMT5			LRAD			
		X1	Y1	Z1	X2	Y2	Z2	X3	Y3	Z3	X4	Y4	Z4	X5	Y5	Z5	X6	Y6	Z6	X7	Y7	Z7	X8	Y8	Z8	X9	Y9	Z9	X10	Y10	Z10	X11	Y11	Z11	X12	Y12	Z12	X13	Y13	Z13	X14	Y14	Z14	X15	Y15	Z15	X16	Y16	Z16	X17	Y17	Z17	X18	Y18	Z18	X19	Y19	Z19	X20	Y20	Z20	X21	Y21	Z21	X22	Y22	Z22	X23	Y23	Z23	X24	Y24	Z24	X25	Y25	Z25	X26	Y26	Z26	X27	Y27	Z27	X28	Y28	Z28	X29	Y29	Z29	X30	Y30	Z30	X31	Y31	Z31	X32	Y32	Z32	X33	Y33	Z33	X34	Y34	Z34	X35	Y35	Z35	X36	Y36	Z36	X37	Y37	Z37	X38	Y38	Z38	X39	Y39	Z39	X40	Y40	Z40	X41	Y41	Z41	X42	Y42	Z42	X43	Y43	Z43	X44	Y44	Z44	X45	Y45	Z45	X46	Y46	Z46	X47	Y47	Z47	X48	Y48	Z48	X49	Y49	Z49	X50	Y50	Z50	X51	Y51	Z51	X52	Y52	Z52	X53	Y53	Z53	X54	Y54	Z54	X55	Y55	Z55	X56	Y56	Z56	X57	Y57	Z57	X58	Y58	Z58	X59	Y59	Z59	X60	Y60	Z60	X61	Y61	Z61	

1027	5.13	-235.5561065673829	1763.659423828125	-1100.7353515625	-395.6038208007814	1724.027954101563	-1160.600341796875	-387.0612792968751	1708.731323242188	-1015.974975585938	-445.1667785644532	1536.965576171875	-1081.6689453125	-423.5353393554689	1256.074340820313	-1055.252685546875	-300.4139709472657	1525.388305664063	-1097.170654296875	-370.7613220214844	1550.137817382813	-1239.171875	-213.2722473144532	1484.2939453125	-1375.211547851563	-183.7581634521485	1517.980102539063	-1349.856567382813	-144.4872741699219	1490.650390625	-1386.286987304688	-81.70245361328126	1491.918212890625	-1389.442993164063	-73.3290252685547	1416.878295898438	-1367.969360351563	213.8846893310547	1496.032836914063	-1353.703247070313	273.4981994628907	1507.102416992188	-1261.106201171875	-341.3837890625001	1557.800170898438	-950.477966308594	-185.20166015625	1529.030639648438	-827.211853027344	-148.7544708251953	1537.810302734375	-857.8723144531252	-118.4393463134766	1523.982177734375	-807.512634277344	-46.06603240966798	1519.761352539063	-794.3132324218752	-40.64509963989259	1441.34228515625	-811.1299438476565	234.1120300292969	1510.138061523438	-860.3653564453127	240.8825683593751	1526.25537109375	-791.9423828125002	315.3816223144532	1544.057373046875	-861.9422607421877	-245.1766662597657	1064.76806640625	-1152.377685546875	-263.1707153320313	1102.727294921875	-904.1544189453127	-423.3301696777345	1121.611572265625	-1040.20458984375	-434.4960021972657	1090.273803710938	-1065.0380859375	-435.5188293457032	1094.579711914063	-1008.747863769531	-281.0802612304688	740.7852172851564	-1182.212524414063	-250.7769165039063	661.8150024414064	-1170.553588867188	-204.443099975586	668.5184326171876	-1149.876831054688	-278.9573669433594	614.1362304687501	-1148.644775390625	-274.0632324218751	552.8935546875001	-1138.185424804688	-264.3264770507813	549.0521240234376	-1018.494445800781	-249.9215393066407	365.5168762207032	-1057.598022460938	-294.8122253417969	323.2051696777344	-1121.236206054688	-257.8954772949219	318.0101623535157	-1091.202514648438	-277.1494140625001	240.7337799072266	-1059.204345703125	-367.2815246582032	112.4060134887696	-1073.54052734375	-329.1530761718751	127.2494583129883	-1002.715637207031	-417.0270385742189	93.13936614990236	-1016.765258789063	-216.1147003173829	45.85742950439454	-1017.884521484375	-209.8597564697266	45.5016212463379	-1068.93505859375	-257.2890930175782	33.28997421264649	-1113.0205078125	-226.2676391601563	845.7774047851565	-826.8436279296877	-170.0463562011719	808.5775146484377	-826.739929199219	-141.4727325439453	821.4573364257815	-835.556335449219	-168.4796295166016	722.5404052734376	-834.4773559570315	-107.771728515625	603.1704101562501	-838.7811279296877	-115.5131149291992	595.2858276367189	-957.472595214844	-29.35485267639161	438.6726379394532	-857.5422363281252	-88.59028625488283	347.7927856445313	-813.2841796875002	-44.29014587402344	358.8821411132813	-825.6168212890627	-25.44554138183594	309.6120300292969	-853.0772094726565	-63.24671173095705	179.7722778320313	-812.8135986328127	-37.2024269104004	188.8601837158203	-894.255065917969	-110.0338287353516	114.7202072143555	-871.6638183593752	101.4872817993164	159.7092437744141	-867.3084716796877	98.13995361328128	168.3189544677735	-821.003845214844	63.5123748779297	140.9978485107422	-775.4342041015627	202.0717468261719	1476.291259765625	-1285.057983398438	
1028	5.135	-235.8276062011719	1763.702514648438	-1100.262329101563	-395.6416931152345	1724.145385742188	-1160.2587890625	-387.0453186035157	1708.749633789063	-1015.572021484375	-445.1239318847657	1536.970458984375	-1081.325439453125	-423.3027343750001	1256.067016601563	-1055.019653320313	-300.4748229980469	1525.489868164063	-1096.927856445313	-370.7725830078126	1550.2607421875	-1238.905151367188	-213.2777252197266	1484.338012695313	-1374.870483398438	-183.7414093017578	1518.000854492188	-1349.56103515625	-144.3833618164063	1490.783081054688	-1385.947631835938	-81.6242141723633	1492.024291992188	-1389.049926757813	-73.27803039550783	1416.955078125	-1367.513305664063	213.9211730957032	1496.174682617188	-1353.490600585938	273.6374206542969	1507.213256835938	-1260.948974609375	-341.4536437988282	1557.886108398438	-950.1973266601565	-185.1934814453125	1528.970092773438	-826.787536621094	-148.6414642333985	1537.840209960938	-857.5274658203127	-118.3572082519532	1523.87841796875	-807.068786621094	-45.87447357177735	1519.716430664063	-794.0032348632815	-40.60142898559571	1441.260620117188	-810.925720214844	234.1376953125001	1510.13525390625	-860.247497558594	240.8979034423829	1526.21435546875	-791.8230590820315	315.4187316894532	1544.066650390625	-861.8095703125002	-244.7781066894532	1064.906005859375	-1152.11474609375	-262.8730163574219	1102.7587890625	-903.9377441406252	-422.907684326172	1121.814086914063	-1040.00341796875	-433.9118041992189	1090.315673828125	-1064.967529296875	-435.1148071289064	1094.632568359375	-1008.625671386719	-281.0077514648438	740.9536743164064	-1182.013305664063	-250.829574584961	661.9494018554689	-1170.473876953125	-204.4721832275391	668.4841308593751	-1149.72216796875	-279.0134887695313	614.2736816406251	-1148.551635742188	-274.2032775878907	552.9827880859376	-1138.078002929688	-264.5613098144532	549.1365356445314	-1018.43798828125	-250.0693817138672	365.5524291992188	-1057.536865234375	-294.9303588867188	323.2373352050782	-1121.18896484375	-258.1379089355469	318.1584777832032	-1091.27490234375	-277.2654113769532	240.7417144775391	-1059.194458007813	-367.3211975097657	112.3903961181641	-1073.576538085938	-329.1374206542969	127.288330078125	-1002.746398925781	-416.9710693359376	93.1519012451172	-1016.817504882813	-216.1159057617188	45.85712432861329	-1017.84765625	-210.0284118652344	45.39440917968751	-1068.5625	-257.2915649414063	33.28393173217774	-1113.013671875	-226.2996215820313	845.434265136719	-826.5887451171877	-170.2555389404297	807.9349365234377	-826.5729980468752	-141.2699279785157	820.9700317382815	-835.0574340820315	-168.9232482910157	721.9768066406251	-834.2719726562502	-109.1047515869141	602.5953979492189	-838.5796508789065	-116.6781082153321	594.6550903320314	-957.1285400390627	-32.03689193725587	437.1005249023439	-857.1492919921877	-91.84258270263673	347.2426147460938	-812.6111450195315	-47.87519073486329	357.6895446777344	-825.091979980469	-29.88864517211915	308.3590698242188	-852.5654296875002	-68.58424377441408	178.7730865478516	-812.2122802734377	-42.52840423583985	187.7424621582032	-893.822448730469	-116.8965301513672	114.0776519775391	-871.1109008789065	94.16456604003908	156.0382080078125	-867.3084716796877	92.50451660156251	165.1349334716797	-820.528991699219	57.71617126464845	138.3607025146485	-774.7941894531252	202.2141418457032	1476.426635742188	-1284.7412109375	
1029	5.14	-235.9309234619141	1763.733642578125	-1099.771850585938	-395.6917114257814	1724.141845703125	-1159.891723632813	-387.0704040527345	1708.874389648438	-1015.22509765625	-445.1113891601564	1536.954956054688	-1081.013671875	-422.886932373047	1256.057373046875	-1054.833251953125	-300.4126892089844	1525.63427734375	-1096.57421875	-370.8631286621094	1550.354858398438	-1238.5263671875	-213.1166076660157	1484.425537109375	-1374.5302734375	-183.7364959716797	1518.071044921875	-1349.1767578125	-144.3967590332032	1490.851196289063	-1385.619140625	-81.63928222656251	1492.117797851563	-1388.717895507813	-73.24503326416017	1417.065307617188	-1367.17236328125	213.8761138916016	1496.313720703125	-1353.194946289063	273.7641906738282	1507.39111328125	-1260.743286132813	-341.4470825195313	1557.944580078125	-949.9206542968752	-185.1686553955078	1528.877563476563	-826.2842407226565	-148.5357208251953	1537.817626953125	-857.1933593750002	-118.3178863525391	1523.866821289063	-806.7886962890627	-45.78296661376954	1519.700805664063	-793.7036743164065	-40.52652740478516	1441.1513671875	-810.7440185546877	234.153549194336	1510.11083984375	-860.0632934570315	241.0400848388672	1526.156616210938	-791.6739501953127	315.3865356445313	1543.65771484375	-861.4050903320315	-244.2728424072266	1065.079223632813	-1152.028076171875	-262.5559387207032	1102.790405273438	-903.7186279296877	-422.3605346679689	1121.468627929688	-1039.81201171875	-433.4661560058595	1090.412841796875	-1064.908569335938	-434.507537841797	1094.671875	-1008.507080078125	-280.8344116210938	741.0428466796876	-1181.842163085938	-250.7700805664063	662.0413818359376	-1170.405029296875	-204.4253540039063	668.4948730468751	-1149.6103515625	-279.0622253417969	614.3560791015626	-1148.474365234375	-274.5257263183594	552.7720336914064	-1138.044311523438	-264.6601867675782	549.2121582031251	-1018.359802246094	-250.2324829101563	365.6568908691407	-1057.463745117188	-295.0473632812501	323.2719116210938	-1121.173095703125	-258.3071899414063	318.2742614746094	-1091.314575195313	-277.1773071289063	241.016342163086	-1059.55712890625	-367.2497863769532	112.4225769042969	-1073.530639648438	-329.1264953613282	127.2225189208985	-1002.729797363281	-417.0339965820314	93.14910888671876	-1016.825073242188	-216.1870117187501	45.9373893737793	-1017.871948242188	-209.8567810058594	45.46855545043946	-1069.001098632813	-257.2799377441407	33.2567481994629	-1113.053344726563	-226.3417968750001	845.109558105469	-826.4524536132815	-170.4479064941407	807.4761352539065	-826.4211425781252	-141.3211517333985	820.3562011718752	-834.9414672851565	-169.4642791748047	721.5659790039064	-834.0776977539065	-110.0444488525391	601.8063354492189	-838.309509277344	-117.9059066772461	593.9012451171876	-956.7651977539065	-34.97357559204102	435.8189392089845	-856.6233520507815	-95.9371795654297	346.2913208007813	-812.3023071289065	-51.39741897583009	356.4192199707032	-824.8208618164065	-33.96925735473634	306.8688964843751	-852.0970458984377	-73.95932769775392	177.8292846679688	-811.5727539062502	-47.90155792236329	186.2355194091797	-893.309265136719	-123.3496246337891	113.7532958984375	-870.345397949219	89.63198089599611	154.0552062988282	-866.5982666015627	87.13568115234376	162.2441558837891	-820.1257934570315	51.70113754272462	135.9659576416016	-774.385437011719	202.2771759033204	1476.57275390625	-1284.539184570313	
1030	5.145	-235.9775695800782	1764.201049804688	-1099.662109375	-395.7380981445314	1724.171508789063	-1159.534301757813	-387.1229553222657	1708.937866210938	-1014.877136230469	-444.975555419922	1536.857543945313	-1080.61181640625	-422.4332275390626	1256.062622070313	-1054.594482421875	-300.3981628417969	1525.74658203125	-1096.28515625	-370.8298950195313	1550.477172851563	-1238.17626953125	-213.1072692871094	1484.440185546875	-1374.14990234375	-183.7732086181641	1518.129028320313	-1348.78271484375	-144.2881927490235	1490.9482421875	-1385.227294921875	-81.58970642089845	1492.163208007813	-1388.419555664063	-73.16558074951173	1417.206909179688	-1366.88671875	213.8941040039063	1496.393676757813	-1352.917602539063	273.8983764648438	1507.552001953125	-1260.549926757813	-341.3526916503907	1557.929565429688	-949.6141357421877	-185.1853485107422	1528.826171875	-826.1343383789065	-148.4816284179688	1537.89794921875	-856.881286621094	-118.2164688110352	1523.876586914063	-806.4720458984377	-45.64086151123048	1519.619262695313	-793.4101562500002	-40.48241424560548	1441.1279296875	-810.5186767578127	234.2841491699219	1510.04638671875	-859.9279785156252	241.1807098388672	1526.095947265625	-791.5366821289065	315.5929565429688	1543.911743164063	-861.6295166015627	-243.7346801757813	1065.15087890625	-1151.835327148438	-262.1349487304688	1102.715087890625	-903.4840087890627	-421.9347534179689	1121.551879882813	-1039.802001953125	-432.9629516601564	1090.52197265625	-1064.734375	-434.0564880371095	1094.710205078125	-1008.422607421875	-280.7968139648438	741.1976318359376	-1181.723266601563	-250.7362823486329	662.1386108398439	-1170.278564453125	-204.4044799804688	668.4886474609376	-1149.54296875	-279.0935974121094	614.4622802734376	-1148.408569335938	-274.3301086425782	553.0744628906251	-1137.896240234375	-264.7146606445313	549.2014160156251	-1018.3193359375	-250.2648620605469	365.6958618164063	-1057.440063476563	-295.1147460937501	323.3851623535157	-1121.163208007813	-258.2528686523438	318.2223205566407	-1091.24267578125	-277.2949523925782	240.996810913086	-1059.339599609375	-367.2184753417969	112.3908920288086	-1073.565063476563	-329.1961059570313	127.2993698120117	-1002.759155273438	-416.9941406250001	93.18711090087892	-1016.848693847656	-216.0630187988282	45.84579849243165	-1017.929443359375	-209.8419952392579	45.49134826660157	-1068.979370117188	-257.2033691406251	33.38414001464844	-1113.200073242188	-226.3474121093751	844.8272094726565	-826.3384399414065	-170.5930328369141	807.0062255859377	-826.3543090820315	-141.5921783447266	819.8339843750002	-834.7791748046877	-169.9055633544922	721.1379394531251	-833.8876953125002	-111.2529754638672	601.2460327148439	-838.0676269531252	-119.0683059692383	593.4934692382814	-956.3247680664065	-37.67655563354493	434.2552490234376	-856.5585937500002	-99.80521392822268	345.6502685546876	-811.942077636719	-54.94414138793947	355.3823242187501	-824.380554199219	-38.19302368164063	305.6552734375001	-851.587097167969	-79.69998931884767	177.0311431884766	-811.2495727539065	-53.42300033569337	185.1332244873047	-892.762634277344	-129.5050659179688	113.4995498657227	-869.8228149414065	83.41194152832033	150.7722930908203	-866.3464965820315	81.08780670166017	159.2743530273438	-819.7071533203127	45.68486022949219	133.508773803711	-773.9465942382815	202.3276824951172	1476.717651367188	-1284.186279296875	
